<?xml version="1.0" standalone="no"?>
<!DOCTYPE svg PUBLIC "-//W3C//DTD SVG 20010904//EN"
 "http://www.w3.org/TR/2001/REC-SVG-20010904/DTD/svg10.dtd">
<svg version="1.0" xmlns="http://www.w3.org/2000/svg"
 width="656.000000pt" height="656.000000pt" viewBox="0 0 656.000000 656.000000"
 preserveAspectRatio="xMidYMid meet">
<metadata>
Created by potrace 1.14, written by Peter Selinger 2001-2017
</metadata>
<g transform="translate(0.000000,656.000000) scale(0.100000,-0.100000)"
fill="#000000" stroke="none">
<path d="M6235 6461 c-11 -9 -71 -42 -260 -141 -66 -35 -122 -66 -125 -69 -3
-3 -30 -18 -60 -33 -30 -15 -93 -48 -140 -74 -119 -66 -213 -116 -300 -161
-41 -21 -77 -40 -80 -44 -3 -3 -25 -15 -50 -28 -25 -13 -67 -36 -95 -51 -27
-15 -86 -47 -130 -70 -44 -23 -132 -71 -195 -105 -63 -34 -144 -78 -180 -97
-36 -20 -83 -45 -105 -58 -22 -12 -79 -43 -128 -67 -48 -25 -90 -49 -93 -54
-3 -5 -10 -7 -15 -4 -5 4 -9 2 -9 -3 0 -5 -8 -12 -17 -15 -10 -3 -49 -23 -88
-44 -38 -22 -115 -63 -170 -93 -55 -29 -120 -64 -145 -78 -98 -54 -178 -97
-235 -126 -33 -16 -62 -33 -65 -36 -3 -3 -39 -23 -80 -44 -82 -43 -132 -70
-260 -141 -47 -25 -98 -53 -115 -61 -16 -8 -57 -29 -90 -47 -33 -18 -100 -55
-150 -82 -49 -27 -110 -59 -135 -73 -25 -13 -79 -42 -120 -64 -41 -23 -81 -45
-87 -51 -7 -5 -13 -6 -13 -1 0 5 -4 5 -8 -1 -4 -5 -20 -17 -37 -26 -16 -9
-140 -76 -275 -148 -135 -72 -252 -136 -260 -141 -8 -5 -35 -20 -60 -32 -25
-13 -48 -27 -52 -33 -4 -5 -8 -6 -8 -1 0 5 -6 4 -12 -2 -7 -5 -44 -27 -83 -47
-38 -21 -95 -51 -125 -68 -30 -16 -93 -50 -140 -75 -47 -25 -97 -54 -113 -64
-15 -11 -27 -16 -27 -12 0 3 -6 2 -13 -3 -14 -12 -77 -47 -207 -116 -52 -28
-116 -63 -142 -78 -27 -16 -48 -26 -48 -22 0 3 -8 -1 -17 -9 -10 -8 -72 -44
-138 -78 -171 -90 -183 -97 -250 -134 -33 -18 -105 -56 -160 -85 -55 -30 -101
-55 -103 -56 -2 -2 50 -29 115 -61 65 -31 349 -171 631 -311 283 -139 518
-253 523 -253 5 0 9 -4 9 -10 0 -5 6 -10 13 -10 6 0 159 -73 339 -163 l328
-162 77 57 c43 32 86 65 95 73 10 8 37 27 60 42 23 15 50 35 60 43 23 21 38
32 78 60 19 13 37 27 40 30 3 3 39 30 80 60 41 30 80 58 85 63 6 4 55 41 110
82 55 41 105 78 110 83 6 5 24 17 40 28 17 10 39 27 50 37 11 10 58 46 105 80
47 34 90 65 95 70 10 8 306 229 347 259 13 9 41 30 63 47 22 16 106 78 186
138 80 59 159 118 175 130 130 100 175 133 179 133 2 0 16 11 31 25 15 14 31
25 36 25 8 0 -19 -59 -33 -70 -4 -3 -9 -15 -13 -27 -4 -13 -12 -23 -17 -23 -5
0 -9 -4 -9 -8 0 -5 -31 -60 -69 -123 -131 -216 -141 -232 -141 -240 0 -5 -4
-9 -10 -9 -5 0 -10 -7 -10 -15 0 -8 -4 -15 -10 -15 -5 0 -10 -4 -10 -9 0 -6
-24 -50 -54 -98 -66 -107 -172 -280 -206 -338 -24 -41 -83 -138 -215 -355 -35
-58 -68 -110 -74 -117 -6 -7 -11 -15 -11 -18 0 -3 -23 -42 -50 -86 -28 -44
-50 -83 -50 -87 0 -3 -6 -13 -14 -21 -8 -9 -23 -32 -34 -51 -11 -19 -64 -107
-117 -195 -54 -88 -107 -176 -118 -195 -21 -34 -21 -48 -21 -827 -1 -436 1
-793 4 -793 5 0 127 162 230 305 36 50 75 102 88 115 12 13 22 30 22 37 0 7 3
13 8 13 4 0 18 17 32 38 14 20 27 39 31 42 3 3 43 57 90 120 46 63 118 161
159 216 41 56 82 112 90 124 63 93 84 111 106 91 5 -5 29 -20 54 -33 25 -14
62 -35 83 -47 20 -11 54 -30 75 -42 20 -12 42 -25 47 -29 6 -4 35 -21 65 -37
30 -17 132 -74 225 -128 94 -54 194 -112 223 -128 30 -16 99 -56 154 -88 55
-32 101 -59 103 -59 2 0 38 -20 79 -45 42 -25 81 -45 86 -45 10 0 12 5 31 115
7 39 14 72 14 75 3 11 16 76 19 90 1 8 8 40 14 70 6 30 14 66 16 80 3 14 21
104 41 200 20 96 39 186 41 200 3 14 7 32 9 40 2 8 7 31 10 50 3 19 20 100 36
180 17 80 32 154 34 165 12 61 16 81 40 195 14 70 37 184 41 208 3 15 21 101
39 192 19 91 36 176 39 190 3 14 8 36 11 50 3 14 8 41 11 60 3 19 8 39 11 43
2 4 7 24 9 45 3 20 7 44 9 52 2 8 7 31 10 50 3 19 8 42 10 50 2 8 7 31 11 50
8 45 12 65 14 65 1 0 3 9 5 20 1 11 5 31 8 45 3 14 8 43 12 65 4 22 10 49 12
60 2 11 6 31 9 45 3 14 16 77 29 140 13 63 26 126 29 140 2 14 10 50 16 80 6
30 13 66 16 80 2 14 9 45 14 70 5 25 12 56 14 70 3 14 7 36 10 50 3 14 8 36
11 50 3 14 8 36 11 50 3 14 7 36 8 50 2 14 6 34 9 45 4 11 9 34 12 50 7 45 14
75 19 93 3 9 7 34 11 56 3 21 7 41 9 45 2 3 7 22 10 41 11 64 16 94 36 185 10
50 21 101 23 115 20 106 21 114 32 163 3 12 8 38 12 57 4 19 8 37 8 40 2 8 16
74 19 90 2 8 6 31 10 50 4 19 9 44 11 55 2 11 4 20 5 20 1 0 3 9 4 20 2 11 8
45 15 76 15 73 23 111 26 129 1 8 5 26 8 40 7 27 16 72 21 105 2 11 6 29 9 40
5 18 13 61 22 120 2 11 4 20 5 20 2 0 6 17 14 60 7 38 26 134 32 160 12 60 15
73 20 105 3 19 7 41 10 49 2 8 7 30 10 50 3 20 10 54 16 76 6 22 11 49 13 60
3 25 12 67 29 150 10 49 11 65 2 65 -7 0 -16 -4 -21 -9z"/>
</g>
</svg>
